<?xml version="1.0" encoding="utf-8"?>
<svg viewBox="0 0 24 24" fill="#FF0000" xmlns="http://www.w3.org/2000/svg">
  <g style="" transform="matrix(0.272797, 0, 0, 0.272797, 9.369418, 8.213171)">
    <path fill="#4285f4" d="M -28.357 46.89 L -14.357 46.89 L -14.357 12.89 L -34.357 -2.11 L -34.357 40.89 C -34.357 44.21 -31.667 46.89 -28.357 46.89"/>
    <path fill="#34a853" d="M 33.643 46.89 L 47.643 46.89 C 50.963 46.89 53.643 44.2 53.643 40.89 L 53.643 -2.11 L 33.643 12.89"/>
    <path fill="#fbbc04" d="M 33.643 -13.11 L 33.643 12.89 L 53.643 -2.11 L 53.643 -10.11 C 53.643 -17.53 45.173 -21.76 39.243 -17.31"/>
    <path fill="#ea4335" d="M -14.357 12.89 L -14.357 -13.11 L 9.643 4.89 L 33.643 -13.11 L 33.643 12.89 L 9.643 30.89"/>
    <path fill="#c5221f" d="M -34.357 -10.11 L -34.357 -2.11 L -14.357 12.89 L -14.357 -13.11 L -19.957 -17.31 C -25.897 -21.76 -34.357 -17.53 -34.357 -10.11"/>
  </g>
</svg>